<?xml version="1.0" encoding="utf-8"?>
<!-- from: https://www.vecteezy.com/vector-art/141922-set-of-poke-ball-pokemon -->
<svg version="1.1" id="Layer_1" xmlns="http://www.w3.org/2000/svg" xmlns:xlink="http://www.w3.org/1999/xlink" x="0px" y="0px"
	 width="350px" height="350px">
	<!-- edited with help of: https://stackoverflow.com/a/561279/5717580 -->
	<g transform="translate(-1050,0)">
		<g>
			<g>
				<path fill="#E6E7E8" d="M1338.5,168.8c0,63.8-51.7,115.5-115.5,115.5c-63.8,0-115.5-51.7-115.5-115.5
					c0-63.8,51.7-115.5,115.5-115.5C1286.8,53.3,1338.5,105,1338.5,168.8z"/>
				<path fill="#3C2415" d="M1223,290.6c-67.1,0-121.7-54.6-121.7-121.7c0-67.1,54.6-121.7,121.7-121.7s121.7,54.6,121.7,121.7
					C1344.7,236,1290.1,290.6,1223,290.6z M1223,59.5c-60.3,0-109.3,49-109.3,109.3c0,60.3,49,109.3,109.3,109.3
					s109.3-49,109.3-109.3C1332.3,108.6,1283.2,59.5,1223,59.5z"/>
			</g>
			<g>
				<path fill="#27AAE1" d="M1338.5,168.8h-231c0-63.8,51.7-115.5,115.5-115.5C1286.8,53.3,1338.5,105,1338.5,168.8z"/>
				<path fill="#3C2415" d="M1338.5,175.1h-231c-3.4,0-6.2-2.8-6.2-6.2c0-67.1,54.6-121.7,121.7-121.7s121.7,54.6,121.7,121.7
					C1344.7,172.3,1341.9,175.1,1338.5,175.1z M1113.8,162.6h218.3c-3.2-57.4-50.9-103.1-109.1-103.1
					C1164.8,59.5,1117.1,105.2,1113.8,162.6z"/>
			</g>
			<g>
				<path fill="#FFFFFF" d="M1254.6,168.8c0,17.4-14.1,31.6-31.6,31.6s-31.6-14.1-31.6-31.6c0-17.5,14.1-31.6,31.6-31.6
					S1254.6,151.4,1254.6,168.8z"/>
				<path fill="#3C2415" d="M1223,206.6c-20.8,0-37.8-17-37.8-37.8c0-20.8,17-37.8,37.8-37.8c20.8,0,37.8,17,37.8,37.8
					C1260.8,189.7,1243.8,206.6,1223,206.6z M1223,143.5c-14,0-25.4,11.4-25.4,25.4c0,14,11.4,25.4,25.4,25.4
					c14,0,25.4-11.4,25.4-25.4C1248.3,154.8,1237,143.5,1223,143.5z"/>
			</g>
		</g>
		<g>
			<g>
				<g>
					<path fill="#EF4136" d="M1118.8,97l54.7,34.7l21-20.7l-40.6-51.9c-4.2-5.4-12.2-5.7-16.9-0.8L1116.7,80
						C1111.9,85.1,1112.9,93.3,1118.8,97z"/>
					<path fill="#3C2415" d="M1173.5,138c-1.2,0-2.3-0.3-3.3-1l-54.7-34.7c-4.4-2.8-7.3-7.3-7.9-12.5c-0.6-5.2,1-10.3,4.6-14.1
						l20.3-21.5c3.5-3.7,8.4-5.7,13.4-5.4c5.1,0.2,9.7,2.7,12.9,6.6l40.6,51.9c1.9,2.5,1.7,6-0.5,8.3l-21,20.7
						C1176.7,137.4,1175.1,138,1173.5,138z M1145.1,61.2c-0.9,0-2.3,0.2-3.6,1.5l-20.3,21.6c-1.4,1.5-1.4,3.1-1.3,4
						c0.1,0.9,0.5,2.5,2.2,3.5v0l50.5,32.1l13.5-13.3L1149,63c-1.2-1.5-2.8-1.8-3.7-1.9C1145.3,61.2,1145.2,61.2,1145.1,61.2z"/>
				</g>
			</g>
			<g>
				<g>
					<path fill="#EF4136" d="M1327.1,97l-54.7,34.7l-21-20.7l40.6-51.9c4.2-5.4,12.2-5.7,16.9-0.8l20.3,21.6
						C1334,85.1,1333,93.3,1327.1,97z"/>
					<path fill="#3C2415" d="M1272.4,138c-1.6,0-3.2-0.6-4.4-1.8l-21-20.7c-2.3-2.2-2.5-5.8-0.5-8.3l40.6-51.9
						c3.1-4,7.8-6.4,12.9-6.6c5.1-0.2,10,1.7,13.4,5.4l20.3,21.6c3.6,3.8,5.2,8.9,4.6,14.1c-0.6,5.2-3.5,9.7-7.9,12.5v0l-54.7,34.7
						C1274.7,137.6,1273.6,138,1272.4,138z M1259.8,110.5l13.5,13.3l50.5-32.1v0c1.7-1.1,2.1-2.7,2.2-3.5c0.1-0.9,0.1-2.5-1.3-4
						l-20.3-21.6c-1.3-1.4-3-1.6-3.8-1.5c-0.8,0-2.4,0.3-3.7,1.9L1259.8,110.5z"/>
				</g>
			</g>
		</g>
	</g>
</svg>