<?xml version="1.0" encoding="utf-8"?>
<!-- from: https://www.vecteezy.com/vector-art/141922-set-of-poke-ball-pokemon -->
<svg version="1.1" id="Layer_1" xmlns="http://www.w3.org/2000/svg" xmlns:xlink="http://www.w3.org/1999/xlink" x="0px" y="0px"
	 width="350px" height="350px">
	 <!-- edited with help of: https://stackoverflow.com/a/561279/5717580 -->
	 <g transform="translate(0,-320)">
	 	<g>
	 		<g>
	 			<path fill="#E6E7E8" d="M292.6,490c0,63.8-51.7,115.5-115.5,115.5c-63.8,0-115.5-51.7-115.5-115.5c0-34.2,14.8-64.9,38.4-86
	 				c20.4-18.3,47.5-29.5,77.1-29.5c29.6,0,56.6,11.1,77,29.5C277.7,425.1,292.6,455.8,292.6,490z"/>
	 			<path fill="#3C2415" d="M177,611.7c-67.1,0-121.7-54.6-121.7-121.7c0-34.6,14.8-67.6,40.5-90.7c22.3-20,51.2-31.1,81.2-31.1
	 				c30.1,0,58.9,11,81.2,31.1c25.8,23,40.5,56.1,40.5,90.7C298.8,557.1,244.2,611.7,177,611.7z M177,380.7
	 				c-27,0-52.9,9.9-72.9,27.9C81,429.3,67.7,459,67.7,490c0,60.3,49,109.3,109.3,109.3s109.3-49,109.3-109.3
	 				c0-31-13.3-60.7-36.4-81.4C229.9,390.6,204,380.7,177,380.7z"/>
	 		</g>
	 		<g>
	 			<path fill="#58595B" d="M292.6,490h-231c0-34.2,14.8-64.9,38.4-86c20.4-18.3,47.5-29.5,77.1-29.5c29.6,0,56.6,11.1,77,29.5
	 				C277.7,425.1,292.6,455.8,292.6,490z"/>
	 			<path fill="#3C2415" d="M292.6,496.2h-231c-3.4,0-6.2-2.8-6.2-6.2c0-34.6,14.8-67.6,40.5-90.7c22.3-20,51.2-31.1,81.2-31.1
	 				c30.1,0,58.9,11,81.2,31.1c25.8,23,40.5,56.1,40.5,90.7C298.8,493.4,296,496.2,292.6,496.2z M67.9,483.8h218.3
	 				c-1.6-28.8-14.6-55.9-36.2-75.2c-20-18-45.9-27.9-72.9-27.9c-27,0-52.9,9.9-72.9,27.9C82.5,427.9,69.5,455,67.9,483.8z"/>
	 		</g>
	 		<g>
	 			<path fill="#FFFFFF" d="M208.6,490c0,17.4-14.1,31.6-31.6,31.6s-31.6-14.1-31.6-31.6c0-17.5,14.1-31.6,31.6-31.6
	 				S208.6,472.5,208.6,490z"/>
	 			<path fill="#3C2415" d="M177,527.8c-20.9,0-37.8-17-37.8-37.8c0-20.8,17-37.8,37.8-37.8c20.8,0,37.8,17,37.8,37.8
	 				C214.8,510.8,197.9,527.8,177,527.8z M177,464.6c-14,0-25.4,11.4-25.4,25.4c0,14,11.4,25.4,25.4,25.4c14,0,25.4-11.4,25.4-25.4
	 				C202.4,476,191,464.6,177,464.6z"/>
	 		</g>
	 	</g>
	 	<g>
	 		<path fill="#FBB040" d="M254.1,403.9V490h-28v-64L177,385.3L127.9,426v64h-28v-86c20.4-18.3,47.5-29.5,77.1-29.5
	 			C206.6,374.5,233.7,385.6,254.1,403.9z"/>
	 		<path fill="#3C2415" d="M254.1,496.2h-28c-3.4,0-6.2-2.8-6.2-6.2v-61.1L177,393.4l-42.9,35.5V490c0,3.4-2.8,6.2-6.2,6.2h-28
	 			c-3.4,0-6.2-2.8-6.2-6.2v-86c0-1.8,0.7-3.4,2.1-4.6c22.3-20,51.2-31.1,81.2-31.1c30.1,0,58.9,11,81.2,31.1
	 			c1.3,1.2,2.1,2.9,2.1,4.6V490C260.3,493.4,257.5,496.2,254.1,496.2z M232.3,483.8h15.5v-77c-18.6-15.9-42-25-66.5-26l48.8,40.4
	 			c1.4,1.2,2.2,2.9,2.2,4.8V483.8z M106.2,483.8h15.5V426c0-1.9,0.8-3.6,2.3-4.8l48.8-40.4c-24.5,1-47.9,10.1-66.6,26V483.8z"/>
	 	</g>
	 </g>
</svg>