<?xml version="1.0" standalone="no"?>
<!DOCTYPE svg PUBLIC "-//W3C//DTD SVG 20010904//EN"
 "http://www.w3.org/TR/2001/REC-SVG-20010904/DTD/svg10.dtd">
<svg version="1.0" xmlns="http://www.w3.org/2000/svg"
 width="800.000000pt" height="600.000000pt" viewBox="0 0 800.000000 600.000000"
 preserveAspectRatio="xMidYMid meet">

<g transform="translate(0.000000,600.000000) scale(0.100000,-0.100000)"
fill="#000000" stroke="none">
<path d="M3790 3951 c-147 -35 -249 -82 -372 -173 -122 -90 -240 -234 -302
-370 -27 -59 -70 -199 -79 -260 l-6 -38 253 0 252 0 32 73 c38 86 101 161 174
209 79 51 134 69 229 75 210 13 399 -111 473 -310 l18 -49 252 7 c138 4 252 9
254 10 7 6 -50 200 -77 264 -110 259 -342 462 -626 547 -78 23 -111 28 -245
30 -122 3 -171 -1 -230 -15z"/>
<path d="M3906 3314 c-161 -50 -261 -213 -228 -371 27 -131 101 -214 226 -256
145 -49 314 21 385 159 51 98 51 210 0 308 -70 137 -234 205 -383 160z"/>
<path d="M3036 2892 c-6 -10 18 -128 40 -197 76 -234 252 -441 474 -557 143
-75 280 -108 450 -108 268 0 491 91 681 280 111 109 181 217 237 365 13 34 52
193 52 213 0 9 -58 12 -255 12 -200 0 -255 -3 -255 -13 0 -7 -16 -45 -35 -86
-48 -100 -130 -180 -232 -229 -76 -36 -81 -37 -193 -37 -111 0 -117 1 -190 36
-125 60 -207 148 -252 271 l-21 58 -248 0 c-136 0 -250 -4 -253 -8z"/>
</g>
</svg>
